<svg width="1920" height="2140" viewBox="0 0 1920 2140" fill="none" xmlns="http://www.w3.org/2000/svg">
<rect width="1920" height="2140" fill="url(#paint0_linear_89_10)"/>
<g clip-path="url(#clip0_89_10)">
<path d="M1592.57 424.168L1593.12 428.13L1595.6 427.785L1595.05 423.823L1607.43 422.098L1597.28 410.891L1599.76 410.546L1591.39 397.577L1584.41 412.685L1587.38 412.271L1581.68 425.687L1592.57 424.168Z" fill="#A6B49B"/>
<path d="M1620.6 422.196L1620.21 425.677L1622.46 425.926L1622.84 422.445L1634.07 423.691L1627.64 411.965L1629.89 412.214L1625.4 399.382L1615.97 410.669L1618.66 410.968L1610.72 421.099L1620.6 422.196Z" fill="#A6B49B"/>
<path d="M1050.07 416.719C705.281 345.704 500.652 208.175 -151.676 334.202L-212 1744H2232.9C2234.48 1360.59 2218.11 583.555 2140.05 542.746C2042.46 491.735 2003.92 416.719 1755.5 416.719C1537 416.719 1394.87 487.734 1050.07 416.719Z" fill="url(#paint1_linear_89_10)"/>
<path d="M996.096 505.367C696.234 375.795 549.237 458.621 -54 584.647L-171 1832.65H2089.91C2091.37 1449.23 2076.23 672.202 2004.04 631.393C1913.8 580.383 1876 569.675 1663.5 545C1364.5 510.281 1369 666.5 996.096 505.367Z" fill="url(#paint2_linear_89_10)"/>
<path d="M933.348 760.297C667.491 602.484 362.422 432.954 -212 536.466L-178 2140.47H1974.91C1976.3 1825.55 2119.24 925.485 2050.5 891.966C1964.57 850.068 1783.87 683.799 1610.5 760.297C1414 847 1228.5 935.5 933.348 760.297Z" fill="url(#paint3_linear_89_10)"/>
</g>
<defs>
<linearGradient id="paint0_linear_89_10" x1="3.03999e-06" y1="232.324" x2="1920.36" y2="263.273" gradientUnits="userSpaceOnUse">
<stop stop-color="#FCF3E7"/>
<stop offset="1" stop-color="#FBE4C4"/>
</linearGradient>
<linearGradient id="paint1_linear_89_10" x1="1010.5" y1="283" x2="1010.5" y2="1744" gradientUnits="userSpaceOnUse">
<stop stop-color="#A6B49B"/>
<stop offset="1" stop-color="#A7B69C"/>
</linearGradient>
<linearGradient id="paint2_linear_89_10" x1="959.5" y1="371.647" x2="959.5" y2="1832.65" gradientUnits="userSpaceOnUse">
<stop stop-color="#D0C8B1"/>
<stop offset="0.408654" stop-color="#BABB9C"/>
</linearGradient>
<linearGradient id="paint3_linear_89_10" x1="898.5" y1="650.464" x2="898.5" y2="1850.45" gradientUnits="userSpaceOnUse">
<stop stop-color="#BCA393"/>
<stop offset="1" stop-color="#D7C3B3"/>
</linearGradient>
<clipPath id="clip0_89_10">
<rect width="1920" height="2140" fill="white"/>
</clipPath>
</defs>
</svg>
