<svg width="40" height="39" viewBox="0 0 40 39" fill="none" xmlns="http://www.w3.org/2000/svg">
<path d="M6.40137 0.25L6.45801 0.420898L8.40137 6.25H39.2354L39.125 6.5791L33.458 23.5791L33.4014 23.75H13.3125L10.4238 30.25H34.75V32.75H6.57617L6.73242 32.3984L11.1592 22.4346L4.59863 2.75H0.25V0.25H6.40137ZM13.4014 21.25H31.5986L35.7656 8.75H9.23438L13.4014 21.25Z" fill="black" stroke="black" stroke-width="0.5"/>
<path d="M15.5 38.5C16.6046 38.5 17.5 37.6046 17.5 36.5C17.5 35.3954 16.6046 34.5 15.5 34.5C14.3954 34.5 13.5 35.3954 13.5 36.5C13.5 37.6046 14.3954 38.5 15.5 38.5Z" fill="black"/>
<path d="M27.5 38.5C28.6046 38.5 29.5 37.6046 29.5 36.5C29.5 35.3954 28.6046 34.5 27.5 34.5C26.3954 34.5 25.5 35.3954 25.5 36.5C25.5 37.6046 26.3954 38.5 27.5 38.5Z" fill="black"/>
</svg>
