<svg width="24" height="24" viewBox="0 0 24 24" fill="none" xmlns="http://www.w3.org/2000/svg">
<path d="M20 9.53125C20 12.5625 17.5312 15 14.5 15C14.125 15 13.7812 14.9688 13.4688 14.9062L12.7188 15.75C12.5625 15.9062 12.375 16 12.1562 16H11V17.25C11 17.6875 10.6562 18 10.25 18H9V19.25C9 19.6875 8.65625 20 8.25 20H4.75C4.3125 20 4 19.6875 4 19.25V16.8125C4 16.625 4.0625 16.4375 4.21875 16.2812L9.25 11.25C9.09375 10.6875 9 10.125 9 9.5C9 6.46875 11.4375 4.03125 14.4688 4C17.5312 4 20 6.46875 20 9.53125ZM14.5 8C14.5 8.84375 15.1562 9.5 16 9.5C16.8125 9.5 17.5 8.84375 17.5 8C17.5 7.1875 16.8125 6.5 16 6.5C15.1562 6.5 14.5 7.1875 14.5 8Z" fill="#495057"/>
</svg>
