<svg width="17" height="20" viewBox="0 0 17 20" fill="none" xmlns="http://www.w3.org/2000/svg">
<path d="M8.2 14.05V12.25" stroke="white" stroke-width="2" stroke-linecap="round"/>
<path d="M1.24103 16.1603C1.44342 17.6635 2.68852 18.8412 4.20369 18.9109C5.47864 18.9695 6.77377 19 8.2 19C9.62623 19 10.9214 18.9695 12.1963 18.9109C13.7115 18.8412 14.9566 17.6635 15.159 16.1603C15.2911 15.1793 15.4 14.1739 15.4 13.15C15.4 12.1262 15.2911 11.1208 15.159 10.1398C14.9566 8.63657 13.7115 7.45889 12.1963 7.38923C10.9214 7.33062 9.62623 7.30005 8.2 7.30005C6.77377 7.30005 5.47864 7.33062 4.20369 7.38923C2.68852 7.45889 1.44342 8.63657 1.24103 10.1398C1.10894 11.1208 0.999998 12.1262 0.999998 13.15C0.999998 14.1739 1.10894 15.1793 1.24103 16.1603Z" stroke="white" stroke-width="2"/>
<path d="M4.14999 7.3V5.05C4.14999 2.81325 5.96324 1 8.19999 1C10.4367 1 12.25 2.81325 12.25 5.05V7.3" stroke="white" stroke-width="2" stroke-linecap="round" stroke-linejoin="round"/>
</svg>
