<svg width="46" height="45" viewBox="0 0 46 45" fill="none" xmlns="http://www.w3.org/2000/svg">
<g clip-path="url(#clip0_42_51)">
<path d="M28.679 4.25926C28.679 1.90694 30.586 0 32.9382 0H41.7407C44.0929 0 45.9999 1.90694 45.9999 4.25926V39.7531C45.9999 42.1053 44.0929 44.0123 41.7407 44.0123H32.9382C30.586 44.0123 28.679 42.1053 28.679 39.7531V4.25926Z" fill="url(#paint0_linear_42_51)"/>
<g filter="url(#filter0_d_42_51)">
<path d="M5.96301 12.4938C5.96301 10.1415 7.86994 8.23457 10.2223 8.23457H35.7778C38.1301 8.23457 40.0371 10.1415 40.0371 12.4938V23C40.0371 25.3523 38.1301 27.2593 35.7778 27.2593H10.2223C7.86994 27.2593 5.96301 25.3523 5.96301 23V12.4938Z" fill="#85E2B3" fill-opacity="0.75"/>
</g>
<path d="M0 4.25926C0 1.90694 1.90694 0 4.25926 0H13.0617C15.4141 0 17.321 1.90694 17.321 4.25926V39.7531C17.321 42.1053 15.4141 44.0123 13.0617 44.0123H4.25926C1.90694 44.0123 0 42.1053 0 39.7531V4.25926Z" fill="url(#paint1_linear_42_51)"/>
<mask id="mask0_42_51" style="mask-type:luminance" maskUnits="userSpaceOnUse" x="3" y="15" width="26" height="28">
<path d="M28.6791 15.6173H3.69141V42.8765H28.6791V15.6173Z" fill="white"/>
</mask>
<g mask="url(#mask0_42_51)">
<g filter="url(#filter1_d_42_51)">
<path d="M5.96301 20.7284C5.96301 18.3761 7.86994 16.4691 10.2223 16.4691H35.7778C38.1301 16.4691 40.0371 18.3761 40.0371 20.7284V31.2346C40.0371 33.5868 38.1301 35.4938 35.7778 35.4938H10.2223C7.86994 35.4938 5.96301 33.5868 5.96301 31.2346V20.7284Z" fill="#85E2B3" fill-opacity="0.75"/>
</g>
</g>
</g>
<defs>
<filter id="filter0_d_42_51" x="-4.03699" y="2.23457" width="54.0741" height="39.0247" filterUnits="userSpaceOnUse" color-interpolation-filters="sRGB">
<feFlood flood-opacity="0" result="BackgroundImageFix"/>
<feColorMatrix in="SourceAlpha" type="matrix" values="0 0 0 0 0 0 0 0 0 0 0 0 0 0 0 0 0 0 127 0" result="hardAlpha"/>
<feOffset dy="4"/>
<feGaussianBlur stdDeviation="5"/>
<feComposite in2="hardAlpha" operator="out"/>
<feColorMatrix type="matrix" values="0 0 0 0 0 0 0 0 0 0 0 0 0 0 0 0 0 0 0.25 0"/>
<feBlend mode="normal" in2="BackgroundImageFix" result="effect1_dropShadow_42_51"/>
<feBlend mode="normal" in="SourceGraphic" in2="effect1_dropShadow_42_51" result="shape"/>
</filter>
<filter id="filter1_d_42_51" x="-4.03699" y="10.4691" width="54.0741" height="39.0247" filterUnits="userSpaceOnUse" color-interpolation-filters="sRGB">
<feFlood flood-opacity="0" result="BackgroundImageFix"/>
<feColorMatrix in="SourceAlpha" type="matrix" values="0 0 0 0 0 0 0 0 0 0 0 0 0 0 0 0 0 0 127 0" result="hardAlpha"/>
<feOffset dy="4"/>
<feGaussianBlur stdDeviation="5"/>
<feComposite in2="hardAlpha" operator="out"/>
<feColorMatrix type="matrix" values="0 0 0 0 0 0 0 0 0 0 0 0 0 0 0 0 0 0 0.25 0"/>
<feBlend mode="normal" in2="BackgroundImageFix" result="effect1_dropShadow_42_51"/>
<feBlend mode="normal" in="SourceGraphic" in2="effect1_dropShadow_42_51" result="shape"/>
</filter>
<linearGradient id="paint0_linear_42_51" x1="37.3394" y1="0" x2="37.3394" y2="44.0123" gradientUnits="userSpaceOnUse">
<stop stop-color="#FE8A1B"/>
<stop offset="1" stop-color="#BF6209"/>
</linearGradient>
<linearGradient id="paint1_linear_42_51" x1="8.66049" y1="0" x2="8.66049" y2="44.0123" gradientUnits="userSpaceOnUse">
<stop stop-color="#1767A2"/>
<stop offset="1" stop-color="#0F4064"/>
</linearGradient>
<clipPath id="clip0_42_51">
<rect width="46" height="44.0123" fill="white"/>
</clipPath>
</defs>
</svg>
