<svg width="50" height="48" viewBox="0 0 50 48" fill="none" xmlns="http://www.w3.org/2000/svg">
<g clip-path="url(#clip0_44_1448)">
<path d="M35.8027 0.5H45.3701C47.6492 0.5 49.5 2.35462 49.5 4.64551V43.3545C49.5 45.6453 47.6492 47.5 45.3701 47.5H35.8027C33.5236 47.5 31.6728 45.6453 31.6728 43.3545V4.64551C31.6728 2.35462 33.5236 0.5 35.8027 0.5Z" stroke="white"/>
<path d="M4.62988 0.5H14.1973C16.4764 0.5 18.3271 2.35462 18.3271 4.64551V43.3545C18.3271 45.6453 16.4764 47.5 14.1973 47.5H4.62988C2.35074 47.5 0.5 45.6453 0.5 43.3545V4.64551C0.5 2.35462 2.35073 0.5 4.62988 0.5Z" stroke="white"/>
<mask id="mask0_44_1448" style="mask-type:luminance" maskUnits="userSpaceOnUse" x="4" y="17" width="28" height="30">
<path d="M30.6725 17.5322V46.2617H4.51234V17.5322H30.6725Z" fill="white" stroke="white"/>
</mask>
<g mask="url(#mask0_44_1448)">
<g filter="url(#filter0_d_44_1448)">
<path d="M11.1114 18.4612H38.8887C41.1678 18.4612 43.0186 20.3159 43.0186 22.6068V34.0648C43.0184 36.3554 41.1677 38.2093 38.8887 38.2093H11.1114C8.83231 38.2093 6.98164 36.3554 6.98148 34.0648V22.6068C6.98148 20.3159 8.8322 18.4612 11.1114 18.4612Z" stroke="white"/>
</g>
</g>
<mask id="mask1_44_1448" style="mask-type:luminance" maskUnits="userSpaceOnUse" x="18" y="1" width="28" height="30">
<path d="M18.9786 30.3196L18.9786 1.59015L45.1388 1.59015L45.1388 30.3196L18.9786 30.3196Z" fill="white" stroke="white"/>
</mask>
<g mask="url(#mask1_44_1448)">
<g filter="url(#filter1_d_44_1448)">
<path d="M38.5398 29.3906L10.7624 29.3906C8.48334 29.3906 6.63253 27.536 6.63253 25.2451L6.63253 13.7871C6.63269 11.4964 8.48344 9.64258 10.7624 9.64258L38.5398 9.64258C40.8188 9.64258 42.6695 11.4964 42.6696 13.7871L42.6696 25.2451C42.6696 27.536 40.8189 29.3906 38.5398 29.3906Z" stroke="white"/>
</g>
</g>
</g>
<defs>
<filter id="filter0_d_44_1448" x="-3.51852" y="11.9612" width="57.037" height="40.7484" filterUnits="userSpaceOnUse" color-interpolation-filters="sRGB">
<feFlood flood-opacity="0" result="BackgroundImageFix"/>
<feColorMatrix in="SourceAlpha" type="matrix" values="0 0 0 0 0 0 0 0 0 0 0 0 0 0 0 0 0 0 127 0" result="hardAlpha"/>
<feOffset dy="4"/>
<feGaussianBlur stdDeviation="5"/>
<feComposite in2="hardAlpha" operator="out"/>
<feColorMatrix type="matrix" values="0 0 0 0 0 0 0 0 0 0 0 0 0 0 0 0 0 0 0.25 0"/>
<feBlend mode="normal" in2="BackgroundImageFix" result="effect1_dropShadow_44_1448"/>
<feBlend mode="normal" in="SourceGraphic" in2="effect1_dropShadow_44_1448" result="shape"/>
</filter>
<filter id="filter1_d_44_1448" x="-3.86739" y="3.14221" width="57.037" height="40.7484" filterUnits="userSpaceOnUse" color-interpolation-filters="sRGB">
<feFlood flood-opacity="0" result="BackgroundImageFix"/>
<feColorMatrix in="SourceAlpha" type="matrix" values="0 0 0 0 0 0 0 0 0 0 0 0 0 0 0 0 0 0 127 0" result="hardAlpha"/>
<feOffset dy="4"/>
<feGaussianBlur stdDeviation="5"/>
<feComposite in2="hardAlpha" operator="out"/>
<feColorMatrix type="matrix" values="0 0 0 0 0 0 0 0 0 0 0 0 0 0 0 0 0 0 0.25 0"/>
<feBlend mode="normal" in2="BackgroundImageFix" result="effect1_dropShadow_44_1448"/>
<feBlend mode="normal" in="SourceGraphic" in2="effect1_dropShadow_44_1448" result="shape"/>
</filter>
<clipPath id="clip0_44_1448">
<rect width="50" height="48" fill="white"/>
</clipPath>
</defs>
</svg>
