<svg width="16" height="16" viewBox="0 0 16 16" fill="none" xmlns="http://www.w3.org/2000/svg">
<path d="M5.18618 1.06667V3.82222L2.96714 2.5542C2.46915 2.26963 1.83528 2.42982 1.53227 2.91681L0.161183 5.12034C-0.154489 5.62767 0.0081051 6.29532 0.521696 6.6007L2.87507 8L0.648497 9.39956C0.15704 9.70848 0.00283176 10.3537 0.301487 10.8514L1.60053 13.0165C1.90928 13.5311 2.58158 13.6898 3.08786 13.3676L5.09729 12.0889V14.9333C5.09729 15.5224 5.57486 16 6.16396 16H8.83063C9.41973 16 9.89729 15.5224 9.89729 14.9333V12.0889L12.1708 13.4783C12.6798 13.7893 13.345 13.6225 13.6469 13.108L14.9669 10.8593C15.2613 10.3576 15.0995 9.71248 14.6032 9.40914L12.2973 8L14.6707 6.52467C15.1747 6.21133 15.3261 5.54681 15.0074 5.04609L13.6368 2.89223C13.3338 2.41605 12.7123 2.25836 12.2189 2.53246L9.89729 3.82222V1.06667C9.89729 0.477563 9.41973 0 8.83063 0H6.25285C5.66374 0 5.18618 0.477564 5.18618 1.06667Z" fill="#E30613"/>
</svg>
